<svg width="190" height="75" viewBox="0 0 190 75" fill="none" xmlns="http://www.w3.org/2000/svg">
<path d="M185 32.5C187.761 32.5 190 34.7386 190 37.5C190 40.2614 187.761 42.5 185 42.5V32.5ZM1.46446 41.0355C-0.488159 39.0829 -0.488159 35.9171 1.46446 33.9645L33.2843 2.14466C35.2369 0.192039 38.4027 0.192039 40.3553 2.14466C42.308 4.09728 42.308 7.26311 40.3553 9.21573L12.0711 37.5L40.3553 65.7843C42.308 67.7369 42.308 70.9027 40.3553 72.8553C38.4027 74.808 35.2369 74.808 33.2843 72.8553L1.46446 41.0355ZM185 42.5H5V32.5H185V42.5Z" fill="black"/>
</svg>
